<?xml version="1.0" encoding="utf-8"?>
<!-- Generator: Adobe Illustrator 17.0.0, SVG Export Plug-In . SVG Version: 6.00 Build 0)  -->
<!DOCTYPE svg PUBLIC "-//W3C//DTD SVG 1.1//EN" "http://www.w3.org/Graphics/SVG/1.1/DTD/svg11.dtd">
<svg version="1.1" id="Layer_1" xmlns="http://www.w3.org/2000/svg" xmlns:xlink="http://www.w3.org/1999/xlink" x="0px" y="0px"
	 width="1000px" height="1000px" viewBox="0 0 1000 1000" enable-background="new 0 0 1000 1000" xml:space="preserve">
<path fill-rule="evenodd" clip-rule="evenodd" fill="none" stroke="#FFFFFF" stroke-width="3" stroke-miterlimit="10" d="
	M310.169,898.973c-1.067,0.185-1.84-0.282-2.786-0.42c-29.111-4.289-55.22-25.439-69.459-51.499
	c-14.234-26.059-29.551-51.219-44.215-76.962c-14.631-25.687-29.598-51.094-44.292-76.771
	c-14.708-25.706-29.779-51.162-44.333-76.877c-14.533-25.681-30.382-50.728-43.735-77.031c-5.97-11.76-8.075-24.926-8.197-38.395
	c-0.119-13.33,1.799-26.734,7.439-38.323c12.766-26.226,29.07-51.364,43.53-77.094c14.458-25.726,29.677-51.1,44.296-76.806
	c29.277-51.478,59.675-102.078,88.439-153.899c14.063-25.328,38.152-46.752,66.545-52.491c12.401-2.506,25.287-2.519,38.302-2.329
	c12.878,0.188,25.634,0.003,38.447,0.023c51.261,0.076,102.508-0.035,153.747,0.039c25.621,0.037,51.278-0.171,76.863,0.042
	c25.653,0.212,51.526-0.869,76.95,0.639c6.545,0.389,12.492,2.728,18.577,4.529c6.972,2.063,13.418,5.448,19.756,9.295
	c13.7,8.312,25.533,20.872,33.455,34.699c14.698,25.648,29.61,51.279,44.354,76.872c14.742,25.589,29.627,51.226,44.366,76.838
	c14.745,25.619,29.681,51.173,44.346,76.848c14.642,25.625,30.102,51.146,43.975,76.754c12.384,22.86,13.264,52.627,4.532,76.934
	c-4.811,13.394-13.423,25.684-20.481,38.283c-7.168,12.799-14.766,25.577-22.113,38.38c-14.716,25.644-29.616,51.225-44.371,76.862
	c-29.521,51.291-59.299,102.409-88.637,153.673c-7.884,13.777-16.352,27.523-29.345,37.83
	c-11.793,9.356-24.648,15.576-38.659,19.154c-12.266,3.132-25.475,2.023-38.411,2.113c-12.791,0.089-25.611,0.031-38.427,0.032
	c-102.496,0.012-204.989-0.002-307.491,0.007C312.074,899.92,311.324,898.773,310.169,898.973z"/>
</svg>
